<mxfile host="Electron" agent="Mozilla/5.0 (Windows NT 10.0; Win64; x64) AppleWebKit/537.36 (KHTML, like Gecko) draw.io/26.0.4 Chrome/128.0.6613.186 Electron/32.2.5 Safari/537.36" version="26.0.4">
  <diagram name="Page-1" id="2K9XFm1prpumCZw_gSIN">
    <mxGraphModel dx="1776" dy="1660" grid="1" gridSize="10" guides="1" tooltips="1" connect="1" arrows="1" fold="1" page="1" pageScale="1" pageWidth="850" pageHeight="1100" math="0" shadow="0">
      <root>
        <mxCell id="0" />
        <mxCell id="1" parent="0" />
        <mxCell id="dCy04nd-o-7pnwjVffCR-15" value="&lt;span style=&quot;&quot;&gt;N02BE&lt;/span&gt;" style="ellipse;whiteSpace=wrap;html=1;fillColor=#d5e8d4;strokeColor=#82b366;fontStyle=1;align=center;" vertex="1" parent="1">
          <mxGeometry x="-130" y="130" width="120" height="80" as="geometry" />
        </mxCell>
        <mxCell id="dCy04nd-o-7pnwjVffCR-16" value="&lt;div&gt;&lt;br&gt;&lt;/div&gt;&lt;div&gt;&lt;table border=&quot;0&quot; cellpadding=&quot;0&quot; cellspacing=&quot;0&quot; dir=&quot;RTL&quot; width=&quot;72&quot; style=&quot;width: 54pt;&quot;&gt;&lt;tbody&gt;&lt;tr height=&quot;19&quot; style=&quot;height: 14.25pt;&quot;&gt;&lt;td height=&quot;19&quot; dir=&quot;LTR&quot; width=&quot;72&quot; style=&quot;height: 14.25pt; width: 54pt;&quot;&gt;N05C&lt;/td&gt;&lt;/tr&gt;&lt;/tbody&gt;&lt;/table&gt;&lt;/div&gt;" style="ellipse;whiteSpace=wrap;html=1;fillColor=#d5e8d4;strokeColor=#82b366;fontStyle=1;align=center;" vertex="1" parent="1">
          <mxGeometry x="-100" y="220" width="120" height="80" as="geometry" />
        </mxCell>
        <mxCell id="dCy04nd-o-7pnwjVffCR-17" value="&lt;div&gt;&lt;br&gt;&lt;/div&gt;&lt;div&gt;&lt;table border=&quot;0&quot; cellpadding=&quot;0&quot; cellspacing=&quot;0&quot; dir=&quot;RTL&quot; width=&quot;72&quot; style=&quot;width: 54pt;&quot;&gt;&lt;tbody&gt;&lt;tr height=&quot;19&quot; style=&quot;height: 14.25pt;&quot;&gt;&lt;td height=&quot;19&quot; dir=&quot;LTR&quot; width=&quot;72&quot; style=&quot;height: 14.25pt; width: 54pt;&quot;&gt;N05C&lt;/td&gt;&lt;/tr&gt;&lt;/tbody&gt;&lt;/table&gt;&lt;/div&gt;" style="ellipse;whiteSpace=wrap;html=1;fillColor=#d5e8d4;strokeColor=#82b366;fontStyle=1;align=center;" vertex="1" parent="1">
          <mxGeometry x="-140" y="-10" width="120" height="80" as="geometry" />
        </mxCell>
        <mxCell id="dCy04nd-o-7pnwjVffCR-18" value="&lt;span style=&quot;&quot;&gt;M01AB&lt;/span&gt;" style="ellipse;whiteSpace=wrap;html=1;fillColor=#d5e8d4;strokeColor=#82b366;fontStyle=1;align=center;" vertex="1" parent="1">
          <mxGeometry x="40" y="240" width="120" height="80" as="geometry" />
        </mxCell>
        <mxCell id="dCy04nd-o-7pnwjVffCR-19" value="&lt;span style=&quot;&quot;&gt;N02BA&lt;/span&gt;" style="ellipse;whiteSpace=wrap;html=1;fillColor=#d5e8d4;strokeColor=#82b366;fontStyle=1;align=center;" vertex="1" parent="1">
          <mxGeometry x="180" y="200" width="120" height="80" as="geometry" />
        </mxCell>
        <mxCell id="dCy04nd-o-7pnwjVffCR-21" value="&lt;div&gt;&lt;br&gt;&lt;/div&gt;&lt;div&gt;&lt;table border=&quot;0&quot; cellpadding=&quot;0&quot; cellspacing=&quot;0&quot; dir=&quot;RTL&quot; width=&quot;72&quot; style=&quot;width: 54pt;&quot;&gt;&lt;tbody&gt;&lt;tr height=&quot;19&quot; style=&quot;height: 14.25pt;&quot;&gt;&lt;td height=&quot;19&quot; dir=&quot;LTR&quot; width=&quot;72&quot; style=&quot;height: 14.25pt; width: 54pt;&quot;&gt;N05B&lt;/td&gt;&lt;/tr&gt;&lt;/tbody&gt;&lt;/table&gt;&lt;/div&gt;" style="ellipse;whiteSpace=wrap;html=1;fillColor=#d5e8d4;strokeColor=#82b366;fontStyle=1;align=center;" vertex="1" parent="1">
          <mxGeometry x="190" y="70" width="120" height="80" as="geometry" />
        </mxCell>
        <mxCell id="dCy04nd-o-7pnwjVffCR-22" value="&lt;span style=&quot;&quot;&gt;M01AE&lt;/span&gt;" style="ellipse;whiteSpace=wrap;html=1;fillColor=#d5e8d4;strokeColor=#82b366;fontStyle=1;align=center;" vertex="1" parent="1">
          <mxGeometry x="10" y="-30" width="120" height="80" as="geometry" />
        </mxCell>
        <mxCell id="dCy04nd-o-7pnwjVffCR-40" value="&lt;span style=&quot;&quot;&gt;&lt;span&gt;R03&lt;/span&gt;&lt;/span&gt;" style="ellipse;whiteSpace=wrap;html=1;fillColor=#d5e8d4;strokeColor=#82b366;fontStyle=1;align=center;" vertex="1" parent="1">
          <mxGeometry x="180" y="-20" width="120" height="80" as="geometry" />
        </mxCell>
        <mxCell id="dCy04nd-o-7pnwjVffCR-41" value="&lt;span&gt;Order&lt;/span&gt;" style="rounded=0;whiteSpace=wrap;html=1;fillColor=#f8cecc;strokeColor=#b85450;align=center;fontStyle=1" vertex="1" parent="1">
          <mxGeometry x="340" y="140" width="120" height="60" as="geometry" />
        </mxCell>
        <mxCell id="dCy04nd-o-7pnwjVffCR-42" value="&lt;span&gt;&lt;u&gt;Order_ID&lt;/u&gt;&lt;/span&gt;" style="ellipse;whiteSpace=wrap;html=1;fillColor=#fff2cc;strokeColor=#d6b656;fontStyle=1;align=center;" vertex="1" parent="1">
          <mxGeometry x="40" y="120" width="120" height="80" as="geometry" />
        </mxCell>
        <mxCell id="dCy04nd-o-7pnwjVffCR-52" value="" style="endArrow=none;html=1;rounded=0;fontStyle=1;align=center;" edge="1" parent="1" target="dCy04nd-o-7pnwjVffCR-42">
          <mxGeometry width="50" height="50" relative="1" as="geometry">
            <mxPoint x="-10" y="170" as="sourcePoint" />
            <mxPoint x="40" y="120" as="targetPoint" />
          </mxGeometry>
        </mxCell>
        <mxCell id="dCy04nd-o-7pnwjVffCR-53" value="" style="endArrow=none;html=1;rounded=0;entryX=0;entryY=0;entryDx=0;entryDy=0;exitX=0.887;exitY=0.846;exitDx=0;exitDy=0;exitPerimeter=0;fontStyle=1;align=center;" edge="1" parent="1" source="dCy04nd-o-7pnwjVffCR-17" target="dCy04nd-o-7pnwjVffCR-42">
          <mxGeometry width="50" height="50" relative="1" as="geometry">
            <mxPoint x="-41" y="85" as="sourcePoint" />
            <mxPoint x="10" y="80" as="targetPoint" />
          </mxGeometry>
        </mxCell>
        <mxCell id="dCy04nd-o-7pnwjVffCR-54" value="" style="endArrow=none;html=1;rounded=0;exitX=0.417;exitY=0;exitDx=0;exitDy=0;exitPerimeter=0;entryX=0.561;entryY=1.018;entryDx=0;entryDy=0;entryPerimeter=0;fontStyle=1;align=center;" edge="1" parent="1" source="dCy04nd-o-7pnwjVffCR-42" target="dCy04nd-o-7pnwjVffCR-22">
          <mxGeometry width="50" height="50" relative="1" as="geometry">
            <mxPoint x="40" y="100" as="sourcePoint" />
            <mxPoint x="90" y="50" as="targetPoint" />
          </mxGeometry>
        </mxCell>
        <mxCell id="dCy04nd-o-7pnwjVffCR-55" value="" style="endArrow=none;html=1;rounded=0;exitX=0.711;exitY=0.057;exitDx=0;exitDy=0;exitPerimeter=0;entryX=0;entryY=1;entryDx=0;entryDy=0;fontStyle=1;align=center;" edge="1" parent="1" source="dCy04nd-o-7pnwjVffCR-42" target="dCy04nd-o-7pnwjVffCR-40">
          <mxGeometry width="50" height="50" relative="1" as="geometry">
            <mxPoint x="140" y="90" as="sourcePoint" />
            <mxPoint x="190" y="40" as="targetPoint" />
            <Array as="points" />
          </mxGeometry>
        </mxCell>
        <mxCell id="dCy04nd-o-7pnwjVffCR-56" value="" style="endArrow=none;html=1;rounded=0;fontStyle=1;align=center;" edge="1" parent="1" source="dCy04nd-o-7pnwjVffCR-42">
          <mxGeometry width="50" height="50" relative="1" as="geometry">
            <mxPoint x="170" y="140" as="sourcePoint" />
            <mxPoint x="190" y="130" as="targetPoint" />
          </mxGeometry>
        </mxCell>
        <mxCell id="dCy04nd-o-7pnwjVffCR-57" value="" style="endArrow=none;html=1;rounded=0;exitX=1;exitY=0.5;exitDx=0;exitDy=0;align=center;fontStyle=1" edge="1" parent="1">
          <mxGeometry width="50" height="50" relative="1" as="geometry">
            <mxPoint x="160" y="169.71" as="sourcePoint" />
            <mxPoint x="340" y="169.71" as="targetPoint" />
          </mxGeometry>
        </mxCell>
        <mxCell id="dCy04nd-o-7pnwjVffCR-58" value="" style="endArrow=none;html=1;rounded=0;fontStyle=1;align=center;" edge="1" parent="1" source="dCy04nd-o-7pnwjVffCR-42" target="dCy04nd-o-7pnwjVffCR-19">
          <mxGeometry width="50" height="50" relative="1" as="geometry">
            <mxPoint x="110" y="140" as="sourcePoint" />
            <mxPoint x="160" y="90" as="targetPoint" />
          </mxGeometry>
        </mxCell>
        <mxCell id="dCy04nd-o-7pnwjVffCR-59" value="" style="endArrow=none;html=1;rounded=0;entryX=0.554;entryY=-0.014;entryDx=0;entryDy=0;entryPerimeter=0;exitX=0.5;exitY=1;exitDx=0;exitDy=0;fontStyle=1;align=center;" edge="1" parent="1" source="dCy04nd-o-7pnwjVffCR-42" target="dCy04nd-o-7pnwjVffCR-18">
          <mxGeometry width="50" height="50" relative="1" as="geometry">
            <mxPoint x="110" y="140" as="sourcePoint" />
            <mxPoint x="160" y="90" as="targetPoint" />
          </mxGeometry>
        </mxCell>
        <mxCell id="dCy04nd-o-7pnwjVffCR-60" value="" style="endArrow=none;html=1;rounded=0;entryX=0.254;entryY=0.9;entryDx=0;entryDy=0;entryPerimeter=0;exitX=0.949;exitY=0.3;exitDx=0;exitDy=0;exitPerimeter=0;fontStyle=1;align=center;" edge="1" parent="1" source="dCy04nd-o-7pnwjVffCR-16" target="dCy04nd-o-7pnwjVffCR-42">
          <mxGeometry width="50" height="50" relative="1" as="geometry">
            <mxPoint x="20" y="240" as="sourcePoint" />
            <mxPoint x="60" y="200" as="targetPoint" />
          </mxGeometry>
        </mxCell>
        <mxCell id="dCy04nd-o-7pnwjVffCR-62" value="" style="endArrow=none;html=1;rounded=0;exitX=0.348;exitY=0.006;exitDx=0;exitDy=0;exitPerimeter=0;fontStyle=1;align=center;" edge="1" parent="1" source="dCy04nd-o-7pnwjVffCR-67" target="dCy04nd-o-7pnwjVffCR-68">
          <mxGeometry width="50" height="50" relative="1" as="geometry">
            <mxPoint x="180" y="-80" as="sourcePoint" />
            <mxPoint x="200" y="-20" as="targetPoint" />
          </mxGeometry>
        </mxCell>
        <mxCell id="dCy04nd-o-7pnwjVffCR-64" value="" style="endArrow=none;html=1;rounded=0;exitX=0.73;exitY=0.079;exitDx=0;exitDy=0;exitPerimeter=0;fontStyle=1;align=center;" edge="1" parent="1" source="dCy04nd-o-7pnwjVffCR-67">
          <mxGeometry width="50" height="50" relative="1" as="geometry">
            <mxPoint x="630" y="160" as="sourcePoint" />
            <mxPoint x="680" y="110" as="targetPoint" />
          </mxGeometry>
        </mxCell>
        <mxCell id="dCy04nd-o-7pnwjVffCR-66" value="" style="endArrow=none;html=1;rounded=0;entryX=0;entryY=0.5;entryDx=0;entryDy=0;fontStyle=1;align=center;" edge="1" parent="1" target="dCy04nd-o-7pnwjVffCR-67">
          <mxGeometry width="50" height="50" relative="1" as="geometry">
            <mxPoint x="460" y="170" as="sourcePoint" />
            <mxPoint x="530" y="170" as="targetPoint" />
            <Array as="points" />
          </mxGeometry>
        </mxCell>
        <mxCell id="dCy04nd-o-7pnwjVffCR-67" value="&lt;span&gt;Duration&lt;/span&gt;" style="ellipse;whiteSpace=wrap;html=1;fillColor=#fff2cc;strokeColor=#d6b656;fontStyle=1;align=center;" vertex="1" parent="1">
          <mxGeometry x="545" y="130" width="120" height="80" as="geometry" />
        </mxCell>
        <mxCell id="dCy04nd-o-7pnwjVffCR-68" value="Month" style="ellipse;whiteSpace=wrap;html=1;fontStyle=1;fillColor=#d5e8d4;strokeColor=#82b366;align=center;" vertex="1" parent="1">
          <mxGeometry x="480" y="30" width="120" height="80" as="geometry" />
        </mxCell>
        <mxCell id="dCy04nd-o-7pnwjVffCR-69" value="Day" style="ellipse;whiteSpace=wrap;html=1;fontStyle=1;fillColor=#d5e8d4;strokeColor=#82b366;align=center;" vertex="1" parent="1">
          <mxGeometry x="520" y="260" width="120" height="80" as="geometry" />
        </mxCell>
        <mxCell id="dCy04nd-o-7pnwjVffCR-70" value="Year" style="ellipse;whiteSpace=wrap;html=1;fontStyle=1;fillColor=#d5e8d4;strokeColor=#82b366;align=center;" vertex="1" parent="1">
          <mxGeometry x="640" y="30" width="120" height="80" as="geometry" />
        </mxCell>
        <mxCell id="dCy04nd-o-7pnwjVffCR-71" value="Hours" style="ellipse;whiteSpace=wrap;html=1;fontStyle=1;fillColor=#d5e8d4;strokeColor=#82b366;" vertex="1" parent="1">
          <mxGeometry x="680" y="220" width="120" height="80" as="geometry" />
        </mxCell>
        <mxCell id="dCy04nd-o-7pnwjVffCR-73" value="" style="endArrow=none;html=1;rounded=0;exitX=0.5;exitY=0;exitDx=0;exitDy=0;fontStyle=1;align=center;" edge="1" parent="1" source="dCy04nd-o-7pnwjVffCR-69">
          <mxGeometry width="50" height="50" relative="1" as="geometry">
            <mxPoint x="550" y="260" as="sourcePoint" />
            <mxPoint x="600" y="210" as="targetPoint" />
          </mxGeometry>
        </mxCell>
        <mxCell id="dCy04nd-o-7pnwjVffCR-74" value="" style="endArrow=none;html=1;rounded=0;entryX=1;entryY=1;entryDx=0;entryDy=0;fontStyle=1;align=center;" edge="1" parent="1" source="dCy04nd-o-7pnwjVffCR-71" target="dCy04nd-o-7pnwjVffCR-67">
          <mxGeometry width="50" height="50" relative="1" as="geometry">
            <mxPoint x="620" y="290" as="sourcePoint" />
            <mxPoint x="670" y="240" as="targetPoint" />
          </mxGeometry>
        </mxCell>
      </root>
    </mxGraphModel>
  </diagram>
</mxfile>
